<svg xmlns="http://www.w3.org/2000/svg" width="100" height="100" x="0" y="0" data-name="Layer 1" viewBox="0 0 64 64"><path d="M41 5a1 1 0 0 0-.758-.97l-8-2A1 1 0 0 0 31 3V4h0l0 2V7a1 1 0 0 0 1.242.97l8-2A1 1 0 0 0 41 5zm-8 .719V4.281L35.877 5zM55.4 48.684 53.715 47.6c-.35.543-.72 1.075-1.1 1.581l1.6 1.2C54.622 49.84 55.021 49.268 55.4 48.684zM52.913 52 51.4 50.687c-.417.48-.858.955-1.313 1.41L51.5 53.511C51.99 53.022 52.465 52.513 52.913 52zM43.937 56.706l.96 1.754c.6-.33 1.2-.687 1.779-1.058l-1.082-1.681C45.057 56.066 44.5 56.4 43.937 56.706zM16.4 55.716c-.543-.35-1.075-.72-1.581-1.1l-1.2 1.6c.546.41 1.118.808 1.7 1.184zM27.159 59.729c-.626-.089-1.264-.2-1.9-.339l-.418 1.955c.68.145 1.364.268 2.035.364zM19.782 57.567c-.588-.269-1.168-.559-1.723-.864L17.1 58.457c.6.328 1.221.64 1.852.929zM23.394 58.914c-.611-.179-1.226-.384-1.831-.608l-.7 1.875c.649.241 1.31.461 1.965.653zM4.271 29.16c.088-.626.2-1.264.338-1.9l-1.955-.418c-.145.679-.268 1.364-.364 2.035zM49.987 54.921l-1.31-1.51c-.489.423-.992.83-1.5 1.209l1.2 1.6C48.921 55.813 49.463 55.376 49.987 54.921zM5.086 25.4c.179-.611.384-1.226.608-1.831l-1.875-.7c-.241.649-.461 1.31-.653 1.965zM8.281 47.6c-.349-.542-.68-1.1-.984-1.657L5.541 46.9c.328.6.684 1.2 1.059 1.78zM3.168 41.175l1.92-.563c-.183-.623-.343-1.251-.475-1.866l-1.955.42C2.8 39.828 2.972 40.5 3.168 41.175zM2.292 37.13l1.98-.283c-.089-.628-.158-1.273-.2-1.916l-1.994.14C2.122 35.762 2.195 36.455 2.292 37.13zM6.434 44.218c-.264-.576-.512-1.175-.738-1.778l-1.873.7c.241.648.508 1.291.792 1.91zM43.049 59.386l-.832-1.819c-.576.264-1.175.512-1.778.738l.7 1.873C41.787 59.937 42.43 59.67 43.049 59.386zM6.433 21.784c.269-.588.559-1.168.864-1.723L5.543 19.1c-.328.6-.64 1.221-.929 1.852zM4.067 31.075l-2-.138C2.024 31.619 2 32.313 2 33v0l2 0C4 32.359 4.022 31.712 4.067 31.075zM9.383 16.82l-1.6-1.2c-.41.546-.808 1.118-1.184 1.7L8.282 18.4C8.632 17.858 9 17.326 9.383 16.82zM56.305 42.438l1.875.7c.241-.649.461-1.31.653-1.965l-1.92-.563C56.734 41.219 56.529 41.834 56.305 42.438zM54.7 45.943l1.754.961c.332-.605.645-1.228.93-1.852l-1.819-.832C55.3 44.8 55.01 45.38 54.7 45.943zM57.39 38.743l1.955.418c.145-.68.268-1.364.364-2.035l-1.98-.283C57.64 37.469 57.525 38.107 57.39 38.743zM34.846 59.729c-.628.089-1.273.158-1.916.2l.14 1.994c.691-.048 1.384-.121 2.059-.218zM31 60c-.646 0-1.293-.022-1.924-.067l-.142 1.994c.678.049 1.375.073 2.068.073zM10.591 50.678c-.423-.489-.83-.992-1.209-1.5l-1.6 1.2c.408.546.846 1.088 1.3 1.612zM38.61 58.912c-.623.183-1.251.343-1.866.475l.42 1.955c.662-.142 1.338-.314 2.009-.51zM18.06 9.3 17.1 7.541c-.6.328-1.2.684-1.78 1.059L16.4 10.281C16.945 9.932 17.5 9.6 18.06 9.3zM19.78 8.434c.576-.264 1.175-.512 1.778-.738l-.7-1.873c-.648.241-1.291.508-1.91.792zM26.868 4.292l.283 1.98c.641-.091 1.285-.16 1.914-.2l-.136-2C28.25 4.12 27.557 4.193 26.868 4.292zM13.314 53.4c-.48-.417-.955-.858-1.41-1.313L10.49 53.5c.489.488 1 .963 1.516 1.411zM12.011 11.082l1.31 1.51c.489-.423.992-.83 1.5-1.209l-1.2-1.6C13.077 10.189 12.535 10.627 12.011 11.082zM22.824 5.169l.563 1.92c.62-.182 1.248-.342 1.867-.476l-.422-1.955C24.166 4.8 23.49 4.974 22.824 5.169zM11.909 13.906 10.5 12.492c-.488.488-.963 1-1.411 1.516L10.6 15.316C11.013 14.836 11.454 14.361 11.909 13.906zM59 28a2.993 2.993 0 0 0-1.028 5.807c-.011.374-.013.752-.039 1.119l1.994.142c.029-.408.032-.827.044-1.243A2.992 2.992 0 0 0 59 28zm0 4a1 1 0 1 1 1-1A1 1 0 0 1 59 32zM47 35.4V31a1 1 0 0 0-1-1H44.679a4.231 4.231 0 0 0-4.417-3.919 4.412 4.412 0 0 0-4.324-1.437 5.093 5.093 0 0 0-.894-.1 4.931 4.931 0 0 0-7.315.167 4.888 4.888 0 0 0-1.274-.169 4.665 4.665 0 0 0-4.731 3.97A3.485 3.485 0 0 0 19.7 30H18a1 1 0 0 0-1 1v4.4a1 1 0 0 0 1 1h2.455a9.729 9.729 0 0 0 .6 1.269L19.47 39.028a1 1 0 0 0 0 1.519l3.96 3.394a1 1 0 0 0 1.3 0l1.749-1.5a13.085 13.085 0 0 0 1.721.619V45a1 1 0 0 0 1 1h5.6a1 1 0 0 0 1-1V43.063a13.085 13.085 0 0 0 1.721-.619l1.749 1.5a1 1 0 0 0 1.3 0l3.96-3.394a1 1 0 0 0 0-1.519l-1.586-1.359a9.729 9.729 0 0 0 .6-1.269H46A1 1 0 0 0 47 35.4zM23.739 29.281c-.007-.063-.017-.128-.04-.269 0-.01 0-.021 0-.031a2.63 2.63 0 0 1 2.76-2.441 2.955 2.955 0 0 1 1.241.278.975.975 0 0 0 .5.074v.128a1.01 1.01 0 0 1 1 1.018h2a3.017 3.017 0 0 0-1.368-2.526A2.908 2.908 0 0 1 31.465 25a2.815 2.815 0 0 1 2.306 1.141 1.051 1.051 0 0 0 .922.413 3.089 3.089 0 0 1 1.01.086.985.985 0 0 0 .5 0 2.605 2.605 0 0 1 .682-.1 2.491 2.491 0 0 1 1.239.334 3.013 3.013 0 0 0-.929 2.174h2a1.021 1.021 0 0 1 .6-.934.851.851 0 0 0 .143-.007A2.319 2.319 0 0 1 42.676 30H23.522A1 1 0 0 0 23.739 29.281zM37.938 32c-.417 3.388-2.92 6-5.938 6s-5.521-2.612-5.938-6zM45 34.4H42.833a1 1 0 0 0-.957.711A7.836 7.836 0 0 1 40.817 37.3a1 1 0 0 0 .173 1.327l1.353 1.159L39.92 41.865 38.331 40.5a1 1 0 0 0-1.1-.133 11.232 11.232 0 0 1-2.645.938 1 1 0 0 0-.784.976V44H30.2V42.285a1 1 0 0 0-.784-.976 11.232 11.232 0 0 1-2.645-.938 1 1 0 0 0-1.1.133L24.08 41.865l-2.423-2.077 1.353-1.159a1 1 0 0 0 .173-1.327 7.836 7.836 0 0 1-1.059-2.191 1 1 0 0 0-.957-.711H19V32h5.052C24.5 36.493 27.89 40 32 40s7.5-3.507 7.948-8H45z"/><path d="M31 15H33V19H31z"/><path d="M42.374 21.126H46.375V23.126H42.374z" transform="translate(-2.648 37.858) rotate(-45)"/><path d="M18.626 20.125H20.626V24.126H18.626z" transform="translate(-9.897 20.358) rotate(-45)"/></svg>