<svg xmlns="http://www.w3.org/2000/svg" width="100" height="100" x="0" y="0" enable-background="new 0 0 248.386 237.182" viewBox="0 0 248.386 237.182" xml:space="preserve"><path d="M105.516,62.662c11.971-20.955,34.516-35.09,60.375-35.09c38.383,0,69.5,31.115,69.5,69.5c0,38.383-31.117,69.5-69.5,69.5 c-20.43,0-38.801-8.818-51.517-22.853c-1.729,4.213-5.434,7.38-9.938,8.371c15.105,16.86,37.037,27.478,61.455,27.478 c45.56,0,82.495-36.936,82.495-82.496c0-45.562-36.935-82.497-82.495-82.497c-28.834,0-54.198,14.803-68.947,37.214 C99.82,54.306,102.816,57.798,105.516,62.662z"/><path d="M150.803 111.82 126.119 101.039 126.119 100.902 150.803 90.121 150.803 82.934 118.186 98.055 118.186 103.887 150.803 119.008z"/><path d="M177.113 72.49 170.264 72.49 155.752 121.652 162.602 121.652z"/><path d="M213.595 97.852 180.979 82.934 180.979 90.121 206.203 100.902 206.203 101.039 180.979 111.82 180.979 119.008 213.595 104.09z"/><path d="M30.954,147.104v-20.677l2,0.842v97.548c0,6.831,5.537,12.364,12.365,12.364c5.281,0,9.778-3.318,11.549-7.981 c0.518-1.364,0.814-2.837,0.814-4.383v-90.271h4.636v90.271c0,6.831,5.537,12.364,12.365,12.364 c6.826,0,12.363-5.533,12.363-12.364V74.815c3.467,7.1,6.999,20.703,6.965,44.919c0,5.516-0.178,11.572-0.568,18.223 c-0.26,4.409,3.105,8.197,7.521,8.455c0.157,0.009,0.315,0.014,0.472,0.014c4.205-0.001,7.73-3.28,7.98-7.533 c0.406-6.934,0.594-13.301,0.594-19.158c-0.012-22.658-2.77-37.664-6.877-48.045c-4.057-10.338-9.855-16.174-15.234-18.842 c-3.416-1.721-6.414-2.109-8.221-2.132c-0.119-0.005-0.238-0.018-0.359-0.018H52.76c0.004,0.219,0.008,0.476,0.009,0.807 c-0.016,3.917-0.447,15.504-5.407,28.774l-5.539-2.333c4.512-12.225,4.959-22.989,4.946-26.441c0-0.36-0.005-0.621-0.009-0.807 h-6.077c-0.479,0-0.944,0.05-1.399,0.133l0.001,0.009c-3.088,0.348-5.766,1.558-8.109,3.106c-2.766,1.849-5.152,4.26-7.215,7.109 c-4.088,5.687-6.924,13.246-6.939,21.842c-0.01,6.436,1.672,13.41,5.572,20.1c3.891,6.7,9.926,13.072,18.375,18.722 c1.365,0.914,2.912,1.353,4.441,1.353c2.58,0,5.113-1.247,6.656-3.553c2.457-3.672,1.473-8.641-2.201-11.098 c-6.775-4.541-10.939-9.168-13.439-13.465c-2.49-4.308-3.395-8.326-3.404-12.059c-0.004-3.485,0.836-6.736,2.119-9.429 c1.264-2.687,3.018-4.777,4.393-5.837c0.426-0.342,0.79-0.558,1.067-0.699l0.185,2.259c-1.045,0.805-2.648,2.608-3.834,5.127 c-1.268,2.66-1.933,5.621-1.931,8.577c0.006,1.967,0.289,3.881,0.844,5.773l3.568-8.475L70.42,93.245l-16.65,39.536l-30.985-13.05 l3.46-8.218c-2.066-2.406-3.87-4.911-5.383-7.513c-3.832-6.577-5.852-13.877-5.839-21.107c0.012-8.289,2.611-16.461,7.313-23.006 c2.271-3.139,4.871-5.693,7.729-7.605c2.847-1.88,6.135-3.07,9.056-3.463l0.002,0.017c0.51-0.083,1.029-0.137,1.562-0.137h14.63 c-5.285-1.129-14.394-2.854-20.275-2.772c-1.517,0.021-2.826,0.16-3.79,0.465c-6.332,2-24,14-30.5,49.5 C-4.141,122.583,15.988,143.479,30.954,147.104z"/><circle cx="60.001" cy="22.5" r="22.5"/><path d="M50.688 82.66H53.012V105.404H50.688z" transform="matrix(0.3876 -0.9218 0.9218 0.3876 -54.9277 105.3847)"/><path d="M48.881 86.946H51.206V109.69H48.881z" transform="matrix(0.3873 -0.922 0.922 0.3873 -59.9829 106.3813)"/></svg>