<?xml version="1.0" encoding="UTF-8" standalone="no"?>
<svg
   xmlns:dc="http://purl.org/dc/elements/1.1/"
   xmlns:cc="http://creativecommons.org/ns#"
   xmlns:rdf="http://www.w3.org/1999/02/22-rdf-syntax-ns#"
   xmlns:svg="http://www.w3.org/2000/svg"
   xmlns="http://www.w3.org/2000/svg"
   xmlns:sodipodi="http://sodipodi.sourceforge.net/DTD/sodipodi-0.dtd"
   xmlns:inkscape="http://www.inkscape.org/namespaces/inkscape"
   inkscape:version="1.0 (4035a4f, 2020-05-01)"
   sodipodi:docname="RTR-logo-only2.svg"
   version="1.1"
   id="svg2"
   xml:space="preserve"
   width="347.888"
   height="374.09332"
   viewBox="0 0 347.888 374.09332"><sodipodi:namedview
     inkscape:current-layer="g167"
     inkscape:window-maximized="0"
     inkscape:window-y="23"
     inkscape:window-x="0"
     inkscape:cy="169.01307"
     inkscape:cx="104.1328"
     inkscape:zoom="0.76205355"
     showgrid="false"
     id="namedview80"
     inkscape:window-height="755"
     inkscape:window-width="1280"
     inkscape:pageshadow="2"
     inkscape:pageopacity="0"
     guidetolerance="10"
     gridtolerance="10"
     objecttolerance="10"
     borderopacity="1"
     bordercolor="#666666"
     pagecolor="#ffffff"
     inkscape:document-rotation="0" /><metadata
     id="metadata8"><rdf:RDF><cc:Work
         rdf:about=""><dc:format>image/svg+xml</dc:format><dc:type
           rdf:resource="http://purl.org/dc/dcmitype/StillImage" /><dc:title /></cc:Work></rdf:RDF></metadata><defs
     id="defs6"><linearGradient
       id="linearGradient152"
       spreadMethod="pad"
       gradientTransform="matrix(182.97783,0,0,-182.97783,100.47909,356.04605)"
       gradientUnits="userSpaceOnUse"
       y2="0"
       x2="1"
       y1="0"
       x1="0"><stop
         id="stop1488"
         offset="0"
         style="stop-opacity:1;stop-color:#be965d" /><stop
         id="stop1490"
         offset="0.04007679"
         style="stop-opacity:1;stop-color:#be965d" /><stop
         id="stop1492"
         offset="1"
         style="stop-opacity:1;stop-color:#ffcb85" /></linearGradient><clipPath
       clipPathUnits="userSpaceOnUse"
       id="clipPath20"><path
         d="M 0,560 H 960 V 0 H 0 Z"
         id="path18" /></clipPath><linearGradient
       x1="0"
       y1="0"
       x2="1"
       y2="0"
       gradientUnits="userSpaceOnUse"
       gradientTransform="matrix(138.26305,0,0,-138.26305,98.280022,235.17647)"
       spreadMethod="pad"
       id="linearGradient108"><stop
         style="stop-opacity:1;stop-color:#be965d"
         offset="0"
         id="stop102" /><stop
         style="stop-opacity:1;stop-color:#be965d"
         offset="0.04007679"
         id="stop104" /><stop
         style="stop-opacity:1;stop-color:#ffcb85"
         offset="1"
         id="stop106" /></linearGradient><linearGradient
       x1="0"
       y1="0"
       x2="1"
       y2="0"
       gradientUnits="userSpaceOnUse"
       gradientTransform="matrix(151.47835,0,0,-151.47835,207.71774,260.11176)"
       spreadMethod="pad"
       id="linearGradient130"><stop
         style="stop-opacity:1;stop-color:#be965d"
         offset="0"
         id="stop124" /><stop
         style="stop-opacity:1;stop-color:#be965d"
         offset="0.04007679"
         id="stop126" /><stop
         style="stop-opacity:1;stop-color:#ffcb85"
         offset="1"
         id="stop128" /></linearGradient><linearGradient
       x1="0"
       y1="0"
       x2="1"
       y2="0"
       gradientUnits="userSpaceOnUse"
       gradientTransform="matrix(182.97783,0,0,-182.97783,100.47909,356.04605)"
       spreadMethod="pad"
       id="linearGradient152-7"><stop
         style="stop-opacity:1;stop-color:#be965d"
         offset="0"
         id="stop146" /><stop
         style="stop-opacity:1;stop-color:#be965d"
         offset="0.04007679"
         id="stop148" /><stop
         style="stop-opacity:1;stop-color:#ffcb85"
         offset="1"
         id="stop150" /></linearGradient></defs><g
     transform="translate(-283.26028,-204.32027)"
     id="g167"><g
       id="g90"
       transform="matrix(1.3333333,0,0,-1.3333333,152.22028,762.41359)"><g
         id="g92"><g
           id="g98"><g
             id="g100"><path
               d="m 125.939,267.765 c -2.942,-2.2 -5.884,-4.402 -8.828,-6.601 v 0 c -0.654,-0.489 -1.301,-0.975 -1.829,-1.515 v 0 l -17.002,-12.947 25.758,-33.824 3.48,2.65 c -0.21,0.427 -0.408,0.841 -0.618,1.248 v 0 c -3.011,5.842 -5.158,11.947 -5.774,18.541 v 0 c -0.736,7.853 0.967,14.928 6.332,20.953 v 0 c 3.825,4.296 8.338,7.753 12.9,11.154 v 0 c 0.001,-27.831 0.193,-55.667 -0.204,-83.493 v 0 c -0.114,-7.986 -1.415,-16.103 -3.324,-23.877 v 0 c -2.459,-10.012 -8.935,-16.814 -19.374,-19.236 v 0 c -1.021,-0.237 -1.958,-0.841 -2.934,-1.275 v 0 c 0.112,-0.515 0.223,-1.029 0.334,-1.543 v 0 c 4.194,0.285 8.407,0.406 12.58,0.881 v 0 c 29.287,3.333 59.477,21.131 58.256,64.408 v 0 c -0.918,32.546 -0.105,65.139 -0.272,97.71 v 0 c -10e-4,0.159 0,0.316 0.002,0.471 v 0 c 1.824,1.327 3.654,2.642 5.501,3.934 v 0 c 2.283,1.598 4.846,2.731 7.657,3.25 v 0 c 8.287,1.531 15.995,0.052 23.053,-4.496 v 0 c 3.753,-2.419 7.335,-5.103 11.011,-7.644 v 0 c 0.262,-0.181 0.781,-0.338 0.98,-0.205 v 0 c 1.004,0.667 1.942,1.433 2.919,2.178 v 0 l -25.79,33.866 z"
               style="fill:#fc766a;stroke:none;fill-opacity:1"
               id="path110" /></g></g></g></g><g
       style="fill-opacity:1;fill:#5b84b1"
       id="g112"
       transform="matrix(1.3333333,0,0,-1.3333333,152.22028,762.41359)"><g
         style="fill-opacity:1;fill:#5b84b1"
         id="g114"><g
           style="fill-opacity:1;fill:#5b84b1"
           id="g120"><g
             style="fill-opacity:1;fill:#5b84b1"
             id="g122"><path
               d="m 285.574,342.709 c -5.691,-4.039 -12.567,-5.281 -17.417,-5.604 v 0 c 0.142,-0.841 0.275,-1.688 0.388,-2.552 v 0 c 2.34,-17.902 -4.841,-31.662 -19.102,-41.256 v 0 c -12.816,-8.621 -26.873,-11.315 -41.685,-11.491 v 0 c -0.035,-5.721 -0.045,-11.438 -0.038,-17.136 v 0 c 0.088,0.014 0.177,0.021 0.266,0.035 v 0 c 6.615,1.135 10.145,-2.003 13.743,-7.501 v 0 c 21.891,-33.464 44.253,-66.593 66.212,-100.009 v 0 c 2.808,-4.272 5.724,-5.757 10.587,-5.652 v 0 c 15.308,0.332 30.625,0.122 45.94,0.122 v 0 h 14.728 v 8.211 c -2.199,0.482 -4.154,1.138 -6.149,1.313 v 0 c -16.387,1.441 -28.288,9.527 -37.467,24.043 v 0 c -17.104,27.047 -35.281,53.356 -52.992,79.986 v 0 c -0.738,1.109 -1.284,2.357 -1.763,3.25 v 0 c 9.064,4.101 18.236,7.2 26.377,12.147 v 0 c 19.118,11.618 26.29,30.201 25.522,52.562 v 0 c -0.503,14.645 -5.309,26.62 -14.244,35.509 v 0 c -1.194,-9.986 -5.615,-20.802 -12.906,-25.977"
               style="fill:#5b84b1;stroke:none;fill-opacity:1"
               id="path132" /></g></g></g></g><g
       id="g134"
       transform="matrix(1.3333333,0,0,-1.3333333,152.22028,762.41359)"><g
         id="g136"><g
           id="g142"><g
             id="g144"><path
               d="m 100.479,388.997 c 3.125,-4.419 5.532,-5.98 7.77,-5.813 v 0 c 27.37,2.037 31.851,-1.105 32.129,-25.268 v 0 c 0.248,-21.464 0.346,-42.929 0.395,-64.395 v 0 l 44.733,34.065 c 0.051,2.114 0.108,4.227 0.175,6.34 v 0 c 0.246,7.784 2.947,16.304 7.386,23.053 v 0 c 18.354,27.902 22.116,27.977 54.558,14.485 v 0 c 7.498,-3.118 20.596,-2.749 27.13,1.129 v 0 c 5.907,3.505 9.473,14.303 8.56,21.341 v 0 c -1.689,13.016 -14.053,21.431 -28.025,20.242 v 0 c -13.366,-1.138 -27.835,-6.112 -38.598,-13.15 v 0 c -11.721,-7.663 -19.734,-19.64 -31.928,-32.426 v 0 49.97 c -30.336,-10.643 -57.31,-20.109 -84.285,-29.573"
               style="mix-blend-mode:normal;fill:#5b84b1;fill-opacity:1;stroke:none"
               id="path154" /></g></g></g></g></g></svg>
